<svg width="20" height="20" viewBox="0 0 20 20" fill="none" xmlns="http://www.w3.org/2000/svg">
<path d="M15.4147 7.12408L16.8814 5.64849C18.7536 6.73514 20.0001 8.23679 20.0001 9.90084C20.0001 13.2229 15.06 15.9085 10.0361 15.9155C9.0138 15.9154 7.99427 15.8079 6.99414 15.5947L8.73484 13.8444C9.1593 13.8885 9.59373 13.9116 10.0331 13.9106H10.0351C9.62163 13.9106 9.22307 13.8474 8.84843 13.7302L10.8223 11.7433C11.2906 11.5408 11.6662 11.1629 11.8685 10.6918L13.8414 8.70593C14.0271 9.30451 14.0707 9.93857 13.9687 10.5572C13.8667 11.1758 13.6219 11.7617 13.254 12.2679C12.886 12.774 12.4052 13.1863 11.8502 13.4716C11.2952 13.7569 10.6813 13.9073 10.0581 13.9106C14.2878 13.8956 18.0073 11.7213 18.0073 9.90084C18.0073 8.95554 16.989 7.91 15.4147 7.12408ZM6.1462 10.778C6.01562 10.192 6.01755 9.58392 6.15185 8.99875C6.28614 8.41358 6.54937 7.86624 6.92211 7.39713C7.29484 6.92803 7.76755 6.54916 8.30533 6.28848C8.84311 6.02781 9.43222 5.892 10.0292 5.89108C5.82636 5.87604 2.06497 8.0744 2.06497 9.90084C2.06497 10.799 2.96571 11.7824 4.38358 12.5513L2.93083 14.0108C1.20209 12.9362 0.0721741 11.4897 0.0721741 9.90084C0.0721741 6.57876 5.03821 3.86916 10.0361 3.8862C10.9468 3.88921 11.8565 3.98043 12.7354 4.14884L10.9648 5.92917C10.6758 5.90712 10.3829 5.89409 10.0879 5.89108C10.3689 5.89509 10.6429 5.92817 10.908 5.98731L6.14521 10.778H6.1462ZM19.0954 0.585164C19.2822 0.773149 19.3871 1.02808 19.3871 1.29389C19.3871 1.5597 19.2822 1.81463 19.0954 2.00261L2.18653 19.014C2.09468 19.1098 1.98479 19.1863 1.86326 19.2389C1.74173 19.2915 1.61101 19.3193 1.47871 19.3205C1.34641 19.3218 1.21519 19.2965 1.0927 19.2462C0.970211 19.1959 0.858911 19.1215 0.765291 19.0275C0.671671 18.9334 0.597608 18.8215 0.547422 18.6984C0.497235 18.5752 0.471932 18.4432 0.472987 18.3101C0.474042 18.177 0.501435 18.0455 0.553567 17.9231C0.605699 17.8008 0.681527 17.6901 0.776626 17.5976L17.6855 0.586166C17.778 0.492963 17.8879 0.419024 18.0089 0.368577C18.1298 0.31813 18.2595 0.292164 18.3904 0.292164C18.5214 0.292164 18.651 0.31813 18.772 0.368577C18.8929 0.419024 19.0028 0.492963 19.0954 0.586166V0.585164Z" fill="#7C7C7C"/>
</svg>
